<?xml version="1.0" encoding="UTF-8" standalone="no"?>
<!DOCTYPE svg PUBLIC "-//W3C//DTD SVG 1.1//EN" "http://www.w3.org/Graphics/SVG/1.1/DTD/svg11.dtd">
<svg width="100%" height="100%" viewBox="0 0 1792 1792" version="1.1" xmlns="http://www.w3.org/2000/svg" xmlns:xlink="http://www.w3.org/1999/xlink" xml:space="preserve" xmlns:serif="http://www.serif.com/" style="fill-rule:evenodd;clip-rule:evenodd;stroke-linejoin:round;stroke-miterlimit:1.41421;">
    <g transform="matrix(1.06887,0,0,1.06887,-61.711,75.1049)">
        <path d="M1344,1344C1344,1326.67 1337.67,1311.67 1325,1299C1312.33,1286.33 1297.33,1280 1280,1280C1262.67,1280 1247.67,1286.33 1235,1299C1222.33,1311.67 1216,1326.67 1216,1344C1216,1361.33 1222.33,1376.33 1235,1389C1247.67,1401.67 1262.67,1408 1280,1408C1297.33,1408 1312.33,1401.67 1325,1389C1337.67,1376.33 1344,1361.33 1344,1344ZM1600,1344C1600,1326.67 1593.67,1311.67 1581,1299C1568.33,1286.33 1553.33,1280 1536,1280C1518.67,1280 1503.67,1286.33 1491,1299C1478.33,1311.67 1472,1326.67 1472,1344C1472,1361.33 1478.33,1376.33 1491,1389C1503.67,1401.67 1518.67,1408 1536,1408C1553.33,1408 1568.33,1401.67 1581,1389C1593.67,1376.33 1600,1361.33 1600,1344ZM1728,1120L1728,1440C1728,1466.67 1718.67,1489.33 1700,1508C1681.33,1526.67 1658.67,1536 1632,1536L160,1536C133.333,1536 110.667,1526.67 92,1508C73.333,1489.33 64,1466.67 64,1440L64,1120C64,1093.33 73.333,1070.67 92,1052C110.667,1033.33 133.333,1024 160,1024L625,1024L760,1160C798.667,1197.33 844,1216 896,1216C948,1216 993.333,1197.33 1032,1160L1168,1024L1632,1024C1658.67,1024 1681.33,1033.33 1700,1052C1718.67,1070.67 1728,1093.33 1728,1120ZM1403,551C1414.33,578.333 1409.67,601.667 1389,621L941,1069C929,1081.67 914,1088 896,1088C878,1088 863,1081.67 851,1069L403,621C382.333,601.667 377.667,578.333 389,551C400.333,525 420,512 448,512L704,512L704,64C704,46.667 710.333,31.667 723,19C735.667,6.333 750.667,0 768,0L1024,0C1041.33,0 1056.33,6.333 1069,19C1081.67,31.667 1088,46.667 1088,64L1088,512L1344,512C1372,512 1391.67,525 1403,551Z" style="fill:rgb(217,217,217);fill-rule:nonzero;"/>
    </g>
</svg>
